<svg xmlns="http://www.w3.org/2000/svg" viewBox="0 0 64 64">
  <g transform="translate(5, 2) scale(0.095)" fill="none" stroke="#000000" stroke-linecap="round" stroke-linejoin="round">
    <circle cx="100" cy="240" r="90" stroke-width="13"/>
    <polygon points="120,191.8 148.2,220 148.2,260 120,288.2 80,288.2 51.8,260 51.8,220 80,191.8" stroke-width="13"/>
    <circle cx="375" cy="450" r="54" stroke-width="11"/>
    <polygon points="356.4,430.4 382.7,424.1 401.3,443.7 393.6,469.6 367.3,475.9 348.7,456.3" stroke-width="9"/>
    <path d="M 214.6 252.0 A 115.2 115.2 0 0 1 125.9 352.2" stroke-width="11"/>
    <path d="M 125.9 352.2 L 305.4 476.7" stroke-width="9"/>
    <path d="M 350.7 379.5 Q 322.2 296.8 214.6 252.0" stroke-width="9"/>
    <path d="M 305.4 476.7 A 74.5 74.5 0 0 1 350.7 379.5" stroke-width="9"/>
    <path d="M 353.2 378.7 A 74.5 74.5 0 0 1 446.6 429.5" stroke-width="9"/>
    <path d="M 446.6 429.5 Q 490.0 324.0 500.0 220.8" stroke-width="9"/>
    <path d="M 500.0 220.8 L 435.0 199.2" stroke-width="9"/>
    <path d="M 435.0 199.2 Q 340.0 324.0 353.2 378.7" stroke-width="9"/>
    <path d="M 482.5 212.4 L 490.5 176.4" stroke-width="9"/>
    <path d="M 446.5 201.6 L 455.0 168.0" stroke-width="9"/>
    <path d="M 433.0 160.8 L 516.5 175.2 L 527.0 98.4 L 444.0 86.4 Z" stroke-width="9"/>
    <path d="M 522.0 141.6 L 568.5 149.3 L 571.5 127.9 L 525.5 120.7 Z" stroke-width="9"/>
    <path d="M 437.5 128.4 L 362.5 117.6 L 365.0 98.4 L 440.0 109.2 Z" stroke-width="9"/>
    <path d="M 441.5 85.9 L 427.5 84.0 L 415.0 91.2 L 413.5 104.4 L 440.0 109.2 Z" stroke-width="9"/>
    <path d="M 437.5 128.4 L 407.5 124.8 L 405.0 139.2 L 412.5 157.2 L 433.0 160.8 Z" stroke-width="9"/>
    <path d="M 195.1 305.1 L 318.2 401.8" stroke-width="9"/>
    <path d="M 392.2 377.5 L 450.0 208.8" stroke-width="9"/>
  </g>
</svg>
